<mxfile host="app.diagrams.net" modified="2022-05-21T15:01:32.393Z" agent="5.0 (Windows NT 10.0; Win64; x64) AppleWebKit/537.36 (KHTML, like Gecko) Chrome/101.0.4951.64 Safari/537.36 Edg/101.0.1210.47" etag="QubDp3fAVDzwaCW67pC_" version="18.0.8" type="github">
  <diagram id="R2lEEEUBdFMjLlhIrx00" name="Page-1">
    <mxGraphModel dx="1673" dy="895" grid="1" gridSize="10" guides="1" tooltips="1" connect="1" arrows="1" fold="1" page="1" pageScale="1" pageWidth="1920" pageHeight="1200" math="0" shadow="0" extFonts="Permanent Marker^https://fonts.googleapis.com/css?family=Permanent+Marker">
      <root>
        <mxCell id="0" />
        <mxCell id="1" parent="0" />
        <mxCell id="c2yxqj--p-VrBpvTJwJd-69" style="edgeStyle=orthogonalEdgeStyle;shape=connector;rounded=1;orthogonalLoop=1;jettySize=auto;html=1;entryX=0.5;entryY=1;entryDx=0;entryDy=0;labelBackgroundColor=default;fontFamily=Helvetica;fontSize=15;fontColor=default;endArrow=none;strokeColor=default;elbow=vertical;startArrow=none;startFill=0;endFill=0;exitX=0.5;exitY=0;exitDx=0;exitDy=0;" edge="1" parent="1" source="c2yxqj--p-VrBpvTJwJd-6" target="c2yxqj--p-VrBpvTJwJd-12">
          <mxGeometry relative="1" as="geometry" />
        </mxCell>
        <mxCell id="c2yxqj--p-VrBpvTJwJd-71" style="edgeStyle=orthogonalEdgeStyle;shape=connector;rounded=1;orthogonalLoop=1;jettySize=auto;html=1;entryX=0.5;entryY=1;entryDx=0;entryDy=0;labelBackgroundColor=default;fontFamily=Helvetica;fontSize=15;fontColor=default;startArrow=none;startFill=0;endArrow=none;endFill=0;strokeColor=default;elbow=vertical;exitX=0.5;exitY=0;exitDx=0;exitDy=0;" edge="1" parent="1" source="c2yxqj--p-VrBpvTJwJd-6" target="c2yxqj--p-VrBpvTJwJd-17">
          <mxGeometry relative="1" as="geometry" />
        </mxCell>
        <mxCell id="c2yxqj--p-VrBpvTJwJd-75" style="edgeStyle=orthogonalEdgeStyle;shape=connector;rounded=1;orthogonalLoop=1;jettySize=auto;html=1;entryX=0.5;entryY=1;entryDx=0;entryDy=0;labelBackgroundColor=default;fontFamily=Helvetica;fontSize=15;fontColor=default;startArrow=none;startFill=0;endArrow=none;endFill=0;strokeColor=default;elbow=vertical;exitX=0.5;exitY=0;exitDx=0;exitDy=0;" edge="1" parent="1" source="c2yxqj--p-VrBpvTJwJd-6" target="c2yxqj--p-VrBpvTJwJd-21">
          <mxGeometry relative="1" as="geometry" />
        </mxCell>
        <mxCell id="c2yxqj--p-VrBpvTJwJd-76" style="edgeStyle=orthogonalEdgeStyle;shape=connector;rounded=1;orthogonalLoop=1;jettySize=auto;html=1;entryX=0.5;entryY=1;entryDx=0;entryDy=0;labelBackgroundColor=default;fontFamily=Helvetica;fontSize=15;fontColor=default;startArrow=none;startFill=0;endArrow=none;endFill=0;strokeColor=default;elbow=vertical;exitX=0.5;exitY=0;exitDx=0;exitDy=0;" edge="1" parent="1" source="c2yxqj--p-VrBpvTJwJd-6" target="c2yxqj--p-VrBpvTJwJd-20">
          <mxGeometry relative="1" as="geometry" />
        </mxCell>
        <mxCell id="c2yxqj--p-VrBpvTJwJd-77" style="edgeStyle=orthogonalEdgeStyle;shape=connector;rounded=1;orthogonalLoop=1;jettySize=auto;html=1;entryX=0.5;entryY=1;entryDx=0;entryDy=0;labelBackgroundColor=default;fontFamily=Helvetica;fontSize=15;fontColor=default;startArrow=none;startFill=0;endArrow=none;endFill=0;strokeColor=default;elbow=vertical;" edge="1" parent="1" source="c2yxqj--p-VrBpvTJwJd-6" target="c2yxqj--p-VrBpvTJwJd-19">
          <mxGeometry relative="1" as="geometry" />
        </mxCell>
        <mxCell id="c2yxqj--p-VrBpvTJwJd-78" style="edgeStyle=orthogonalEdgeStyle;shape=connector;rounded=1;orthogonalLoop=1;jettySize=auto;html=1;entryX=0.5;entryY=1;entryDx=0;entryDy=0;labelBackgroundColor=default;fontFamily=Helvetica;fontSize=15;fontColor=default;startArrow=none;startFill=0;endArrow=none;endFill=0;strokeColor=default;elbow=vertical;" edge="1" parent="1" source="c2yxqj--p-VrBpvTJwJd-6" target="c2yxqj--p-VrBpvTJwJd-16">
          <mxGeometry relative="1" as="geometry" />
        </mxCell>
        <mxCell id="c2yxqj--p-VrBpvTJwJd-79" style="edgeStyle=orthogonalEdgeStyle;shape=connector;rounded=1;orthogonalLoop=1;jettySize=auto;html=1;entryX=0.5;entryY=1;entryDx=0;entryDy=0;labelBackgroundColor=default;fontFamily=Helvetica;fontSize=15;fontColor=default;startArrow=none;startFill=0;endArrow=none;endFill=0;strokeColor=default;elbow=vertical;exitX=0.5;exitY=0;exitDx=0;exitDy=0;" edge="1" parent="1" source="c2yxqj--p-VrBpvTJwJd-6" target="c2yxqj--p-VrBpvTJwJd-24">
          <mxGeometry relative="1" as="geometry" />
        </mxCell>
        <mxCell id="c2yxqj--p-VrBpvTJwJd-80" style="edgeStyle=orthogonalEdgeStyle;shape=connector;rounded=1;orthogonalLoop=1;jettySize=auto;html=1;entryX=0.5;entryY=1;entryDx=0;entryDy=0;labelBackgroundColor=default;fontFamily=Helvetica;fontSize=15;fontColor=default;startArrow=none;startFill=0;endArrow=none;endFill=0;strokeColor=default;elbow=vertical;exitX=0.5;exitY=0;exitDx=0;exitDy=0;" edge="1" parent="1" source="c2yxqj--p-VrBpvTJwJd-6" target="c2yxqj--p-VrBpvTJwJd-23">
          <mxGeometry relative="1" as="geometry" />
        </mxCell>
        <mxCell id="c2yxqj--p-VrBpvTJwJd-81" style="edgeStyle=orthogonalEdgeStyle;shape=connector;rounded=1;orthogonalLoop=1;jettySize=auto;html=1;entryX=0.5;entryY=1;entryDx=0;entryDy=0;labelBackgroundColor=default;fontFamily=Helvetica;fontSize=15;fontColor=default;startArrow=none;startFill=0;endArrow=none;endFill=0;strokeColor=default;elbow=vertical;exitX=0.5;exitY=0;exitDx=0;exitDy=0;" edge="1" parent="1" source="c2yxqj--p-VrBpvTJwJd-6" target="c2yxqj--p-VrBpvTJwJd-22">
          <mxGeometry relative="1" as="geometry" />
        </mxCell>
        <mxCell id="c2yxqj--p-VrBpvTJwJd-82" style="edgeStyle=orthogonalEdgeStyle;shape=connector;rounded=1;orthogonalLoop=1;jettySize=auto;html=1;entryX=0.5;entryY=1;entryDx=0;entryDy=0;labelBackgroundColor=default;fontFamily=Helvetica;fontSize=15;fontColor=default;startArrow=none;startFill=0;endArrow=none;endFill=0;strokeColor=default;elbow=vertical;exitX=0.5;exitY=0;exitDx=0;exitDy=0;" edge="1" parent="1" source="c2yxqj--p-VrBpvTJwJd-6" target="c2yxqj--p-VrBpvTJwJd-25">
          <mxGeometry relative="1" as="geometry" />
        </mxCell>
        <mxCell id="c2yxqj--p-VrBpvTJwJd-107" style="edgeStyle=orthogonalEdgeStyle;shape=connector;rounded=1;orthogonalLoop=1;jettySize=auto;html=1;entryX=0;entryY=0.5;entryDx=0;entryDy=0;labelBackgroundColor=default;fontFamily=Helvetica;fontSize=15;fontColor=default;startArrow=none;startFill=0;endArrow=none;endFill=0;strokeColor=default;elbow=vertical;" edge="1" parent="1" source="c2yxqj--p-VrBpvTJwJd-123" target="c2yxqj--p-VrBpvTJwJd-93">
          <mxGeometry relative="1" as="geometry" />
        </mxCell>
        <mxCell id="c2yxqj--p-VrBpvTJwJd-108" style="edgeStyle=orthogonalEdgeStyle;shape=connector;rounded=1;orthogonalLoop=1;jettySize=auto;html=1;entryX=1;entryY=0.5;entryDx=0;entryDy=0;labelBackgroundColor=default;fontFamily=Helvetica;fontSize=15;fontColor=default;startArrow=none;startFill=0;endArrow=none;endFill=0;strokeColor=default;" edge="1" parent="1" source="c2yxqj--p-VrBpvTJwJd-118" target="c2yxqj--p-VrBpvTJwJd-44">
          <mxGeometry relative="1" as="geometry">
            <Array as="points">
              <mxPoint x="570" y="390" />
              <mxPoint x="570" y="390" />
            </Array>
          </mxGeometry>
        </mxCell>
        <mxCell id="c2yxqj--p-VrBpvTJwJd-133" style="edgeStyle=orthogonalEdgeStyle;shape=connector;rounded=1;orthogonalLoop=1;jettySize=auto;html=1;entryX=1;entryY=0.5;entryDx=0;entryDy=0;labelBackgroundColor=default;fontFamily=Helvetica;fontSize=15;fontColor=default;startArrow=none;startFill=0;endArrow=none;endFill=0;strokeColor=default;" edge="1" parent="1" source="c2yxqj--p-VrBpvTJwJd-139" target="c2yxqj--p-VrBpvTJwJd-47">
          <mxGeometry relative="1" as="geometry">
            <Array as="points" />
          </mxGeometry>
        </mxCell>
        <mxCell id="c2yxqj--p-VrBpvTJwJd-144" style="edgeStyle=orthogonalEdgeStyle;shape=connector;rounded=1;orthogonalLoop=1;jettySize=auto;html=1;entryX=0;entryY=0.5;entryDx=0;entryDy=0;labelBackgroundColor=default;fontFamily=Helvetica;fontSize=15;fontColor=default;startArrow=none;startFill=0;endArrow=none;endFill=0;strokeColor=default;" edge="1" parent="1" source="c2yxqj--p-VrBpvTJwJd-148" target="c2yxqj--p-VrBpvTJwJd-58">
          <mxGeometry relative="1" as="geometry" />
        </mxCell>
        <mxCell id="c2yxqj--p-VrBpvTJwJd-6" value="博客文章" style="rounded=1;whiteSpace=wrap;html=1;fontSize=15;" vertex="1" parent="1">
          <mxGeometry x="730" y="420" width="90" height="40" as="geometry" />
        </mxCell>
        <mxCell id="c2yxqj--p-VrBpvTJwJd-12" value="博客标题" style="rounded=1;whiteSpace=wrap;html=1;fontSize=15;" vertex="1" parent="1">
          <mxGeometry x="270" y="200" width="90" height="40" as="geometry" />
        </mxCell>
        <mxCell id="c2yxqj--p-VrBpvTJwJd-16" value="是否原创" style="rounded=1;whiteSpace=wrap;html=1;fontSize=15;" vertex="1" parent="1">
          <mxGeometry x="770" y="200" width="90" height="40" as="geometry" />
        </mxCell>
        <mxCell id="c2yxqj--p-VrBpvTJwJd-17" value="博客内容" style="rounded=1;whiteSpace=wrap;html=1;fontSize=15;" vertex="1" parent="1">
          <mxGeometry x="370" y="200" width="90" height="40" as="geometry" />
        </mxCell>
        <mxCell id="c2yxqj--p-VrBpvTJwJd-19" value="更新时间" style="rounded=1;whiteSpace=wrap;html=1;fontSize=15;" vertex="1" parent="1">
          <mxGeometry x="670" y="200" width="90" height="40" as="geometry" />
        </mxCell>
        <mxCell id="c2yxqj--p-VrBpvTJwJd-20" value="创建时间" style="rounded=1;whiteSpace=wrap;html=1;fontSize=15;" vertex="1" parent="1">
          <mxGeometry x="570" y="200" width="90" height="40" as="geometry" />
        </mxCell>
        <mxCell id="c2yxqj--p-VrBpvTJwJd-21" value="浏览次数" style="rounded=1;whiteSpace=wrap;html=1;fontSize=15;" vertex="1" parent="1">
          <mxGeometry x="470" y="200" width="90" height="40" as="geometry" />
        </mxCell>
        <mxCell id="c2yxqj--p-VrBpvTJwJd-22" value="是否开启版权声明" style="rounded=1;whiteSpace=wrap;html=1;fontSize=15;" vertex="1" parent="1">
          <mxGeometry x="1070" y="200" width="90" height="40" as="geometry" />
        </mxCell>
        <mxCell id="c2yxqj--p-VrBpvTJwJd-23" value="是否允许评论" style="rounded=1;whiteSpace=wrap;html=1;fontSize=15;" vertex="1" parent="1">
          <mxGeometry x="970" y="200" width="90" height="40" as="geometry" />
        </mxCell>
        <mxCell id="c2yxqj--p-VrBpvTJwJd-24" value="是否公开" style="rounded=1;whiteSpace=wrap;html=1;fontSize=15;" vertex="1" parent="1">
          <mxGeometry x="870" y="200" width="90" height="40" as="geometry" />
        </mxCell>
        <mxCell id="c2yxqj--p-VrBpvTJwJd-25" value="是否开启赞赏" style="rounded=1;whiteSpace=wrap;html=1;fontSize=15;" vertex="1" parent="1">
          <mxGeometry x="1170" y="200" width="90" height="40" as="geometry" />
        </mxCell>
        <mxCell id="c2yxqj--p-VrBpvTJwJd-85" style="edgeStyle=orthogonalEdgeStyle;shape=connector;rounded=1;orthogonalLoop=1;jettySize=auto;html=1;entryX=1;entryY=0.5;entryDx=0;entryDy=0;labelBackgroundColor=default;fontFamily=Helvetica;fontSize=15;fontColor=default;startArrow=none;startFill=0;endArrow=none;endFill=0;strokeColor=default;elbow=vertical;" edge="1" parent="1" source="c2yxqj--p-VrBpvTJwJd-44" target="c2yxqj--p-VrBpvTJwJd-45">
          <mxGeometry relative="1" as="geometry" />
        </mxCell>
        <mxCell id="c2yxqj--p-VrBpvTJwJd-87" style="edgeStyle=orthogonalEdgeStyle;shape=connector;rounded=1;orthogonalLoop=1;jettySize=auto;html=1;entryX=1;entryY=0.5;entryDx=0;entryDy=0;labelBackgroundColor=default;fontFamily=Helvetica;fontSize=15;fontColor=default;startArrow=none;startFill=0;endArrow=none;endFill=0;strokeColor=default;elbow=vertical;" edge="1" parent="1" source="c2yxqj--p-VrBpvTJwJd-44" target="c2yxqj--p-VrBpvTJwJd-46">
          <mxGeometry relative="1" as="geometry" />
        </mxCell>
        <mxCell id="c2yxqj--p-VrBpvTJwJd-44" value="分类" style="rounded=1;whiteSpace=wrap;html=1;fontSize=15;" vertex="1" parent="1">
          <mxGeometry x="450" y="370" width="90" height="40" as="geometry" />
        </mxCell>
        <mxCell id="c2yxqj--p-VrBpvTJwJd-45" value="分类名称" style="rounded=1;whiteSpace=wrap;html=1;fontSize=15;" vertex="1" parent="1">
          <mxGeometry x="270" y="330" width="90" height="40" as="geometry" />
        </mxCell>
        <mxCell id="c2yxqj--p-VrBpvTJwJd-46" value="创建时间" style="rounded=1;whiteSpace=wrap;html=1;fontSize=15;" vertex="1" parent="1">
          <mxGeometry x="270" y="412" width="90" height="40" as="geometry" />
        </mxCell>
        <mxCell id="c2yxqj--p-VrBpvTJwJd-47" value="用户" style="rounded=1;whiteSpace=wrap;html=1;fontSize=15;" vertex="1" parent="1">
          <mxGeometry x="450" y="580" width="90" height="40" as="geometry" />
        </mxCell>
        <mxCell id="c2yxqj--p-VrBpvTJwJd-98" style="edgeStyle=orthogonalEdgeStyle;shape=connector;rounded=1;orthogonalLoop=1;jettySize=auto;html=1;entryX=0;entryY=0.5;entryDx=0;entryDy=0;labelBackgroundColor=default;fontFamily=Helvetica;fontSize=15;fontColor=default;startArrow=none;startFill=0;endArrow=none;endFill=0;strokeColor=default;elbow=vertical;" edge="1" parent="1" source="c2yxqj--p-VrBpvTJwJd-48" target="c2yxqj--p-VrBpvTJwJd-47">
          <mxGeometry relative="1" as="geometry" />
        </mxCell>
        <mxCell id="c2yxqj--p-VrBpvTJwJd-48" value="昵称" style="rounded=1;whiteSpace=wrap;html=1;fontSize=15;" vertex="1" parent="1">
          <mxGeometry x="270" y="480" width="90" height="40" as="geometry" />
        </mxCell>
        <mxCell id="c2yxqj--p-VrBpvTJwJd-102" style="edgeStyle=orthogonalEdgeStyle;shape=connector;rounded=1;orthogonalLoop=1;jettySize=auto;html=1;entryX=0;entryY=0.5;entryDx=0;entryDy=0;labelBackgroundColor=default;fontFamily=Helvetica;fontSize=15;fontColor=default;startArrow=none;startFill=0;endArrow=none;endFill=0;strokeColor=default;elbow=vertical;" edge="1" parent="1" source="c2yxqj--p-VrBpvTJwJd-49" target="c2yxqj--p-VrBpvTJwJd-47">
          <mxGeometry relative="1" as="geometry" />
        </mxCell>
        <mxCell id="c2yxqj--p-VrBpvTJwJd-49" value="邮箱" style="rounded=1;whiteSpace=wrap;html=1;fontSize=15;" vertex="1" parent="1">
          <mxGeometry x="270" y="680" width="90" height="40" as="geometry" />
        </mxCell>
        <mxCell id="c2yxqj--p-VrBpvTJwJd-99" style="edgeStyle=orthogonalEdgeStyle;shape=connector;rounded=1;orthogonalLoop=1;jettySize=auto;html=1;entryX=0;entryY=0.5;entryDx=0;entryDy=0;labelBackgroundColor=default;fontFamily=Helvetica;fontSize=15;fontColor=default;startArrow=none;startFill=0;endArrow=none;endFill=0;strokeColor=default;elbow=vertical;" edge="1" parent="1" source="c2yxqj--p-VrBpvTJwJd-50" target="c2yxqj--p-VrBpvTJwJd-47">
          <mxGeometry relative="1" as="geometry" />
        </mxCell>
        <mxCell id="c2yxqj--p-VrBpvTJwJd-50" value="登录用户名" style="rounded=1;whiteSpace=wrap;html=1;fontSize=15;" vertex="1" parent="1">
          <mxGeometry x="270" y="530" width="90" height="40" as="geometry" />
        </mxCell>
        <mxCell id="c2yxqj--p-VrBpvTJwJd-101" style="edgeStyle=orthogonalEdgeStyle;shape=connector;rounded=1;orthogonalLoop=1;jettySize=auto;html=1;entryX=0;entryY=0.5;entryDx=0;entryDy=0;labelBackgroundColor=default;fontFamily=Helvetica;fontSize=15;fontColor=default;startArrow=none;startFill=0;endArrow=none;endFill=0;strokeColor=default;elbow=vertical;" edge="1" parent="1" source="c2yxqj--p-VrBpvTJwJd-52" target="c2yxqj--p-VrBpvTJwJd-47">
          <mxGeometry relative="1" as="geometry" />
        </mxCell>
        <mxCell id="c2yxqj--p-VrBpvTJwJd-52" value="头像链接" style="rounded=1;whiteSpace=wrap;html=1;fontSize=15;" vertex="1" parent="1">
          <mxGeometry x="270" y="630" width="90" height="40" as="geometry" />
        </mxCell>
        <mxCell id="c2yxqj--p-VrBpvTJwJd-100" style="edgeStyle=orthogonalEdgeStyle;shape=connector;rounded=1;orthogonalLoop=1;jettySize=auto;html=1;labelBackgroundColor=default;fontFamily=Helvetica;fontSize=15;fontColor=default;startArrow=none;startFill=0;endArrow=none;endFill=0;strokeColor=default;elbow=vertical;" edge="1" parent="1" source="c2yxqj--p-VrBpvTJwJd-53">
          <mxGeometry relative="1" as="geometry">
            <mxPoint x="450" y="600" as="targetPoint" />
          </mxGeometry>
        </mxCell>
        <mxCell id="c2yxqj--p-VrBpvTJwJd-53" value="密码" style="rounded=1;whiteSpace=wrap;html=1;fontSize=15;" vertex="1" parent="1">
          <mxGeometry x="270" y="580" width="90" height="40" as="geometry" />
        </mxCell>
        <mxCell id="c2yxqj--p-VrBpvTJwJd-103" style="edgeStyle=orthogonalEdgeStyle;shape=connector;rounded=1;orthogonalLoop=1;jettySize=auto;html=1;entryX=0;entryY=0.5;entryDx=0;entryDy=0;labelBackgroundColor=default;fontFamily=Helvetica;fontSize=15;fontColor=default;startArrow=none;startFill=0;endArrow=none;endFill=0;strokeColor=default;elbow=vertical;" edge="1" parent="1" source="c2yxqj--p-VrBpvTJwJd-58" target="c2yxqj--p-VrBpvTJwJd-59">
          <mxGeometry relative="1" as="geometry" />
        </mxCell>
        <mxCell id="c2yxqj--p-VrBpvTJwJd-104" style="edgeStyle=orthogonalEdgeStyle;shape=connector;rounded=1;orthogonalLoop=1;jettySize=auto;html=1;entryX=0;entryY=0.5;entryDx=0;entryDy=0;labelBackgroundColor=default;fontFamily=Helvetica;fontSize=15;fontColor=default;startArrow=none;startFill=0;endArrow=none;endFill=0;strokeColor=default;elbow=vertical;" edge="1" parent="1" source="c2yxqj--p-VrBpvTJwJd-58" target="c2yxqj--p-VrBpvTJwJd-61">
          <mxGeometry relative="1" as="geometry" />
        </mxCell>
        <mxCell id="c2yxqj--p-VrBpvTJwJd-105" style="edgeStyle=orthogonalEdgeStyle;shape=connector;rounded=1;orthogonalLoop=1;jettySize=auto;html=1;entryX=0;entryY=0.5;entryDx=0;entryDy=0;labelBackgroundColor=default;fontFamily=Helvetica;fontSize=15;fontColor=default;startArrow=none;startFill=0;endArrow=none;endFill=0;strokeColor=default;elbow=vertical;" edge="1" parent="1" source="c2yxqj--p-VrBpvTJwJd-58" target="c2yxqj--p-VrBpvTJwJd-64">
          <mxGeometry relative="1" as="geometry" />
        </mxCell>
        <mxCell id="c2yxqj--p-VrBpvTJwJd-106" style="edgeStyle=orthogonalEdgeStyle;shape=connector;rounded=1;orthogonalLoop=1;jettySize=auto;html=1;entryX=0;entryY=0.5;entryDx=0;entryDy=0;labelBackgroundColor=default;fontFamily=Helvetica;fontSize=15;fontColor=default;startArrow=none;startFill=0;endArrow=none;endFill=0;strokeColor=default;elbow=vertical;" edge="1" parent="1" source="c2yxqj--p-VrBpvTJwJd-58" target="c2yxqj--p-VrBpvTJwJd-63">
          <mxGeometry relative="1" as="geometry" />
        </mxCell>
        <mxCell id="c2yxqj--p-VrBpvTJwJd-58" value="评论" style="rounded=1;whiteSpace=wrap;html=1;fontSize=15;" vertex="1" parent="1">
          <mxGeometry x="990" y="580" width="90" height="40" as="geometry" />
        </mxCell>
        <mxCell id="c2yxqj--p-VrBpvTJwJd-59" value="评论者昵称" style="rounded=1;whiteSpace=wrap;html=1;fontSize=15;" vertex="1" parent="1">
          <mxGeometry x="1170" y="505" width="90" height="40" as="geometry" />
        </mxCell>
        <mxCell id="c2yxqj--p-VrBpvTJwJd-61" value="评论者头像" style="rounded=1;whiteSpace=wrap;html=1;fontSize=15;" vertex="1" parent="1">
          <mxGeometry x="1170" y="555" width="90" height="40" as="geometry" />
        </mxCell>
        <mxCell id="c2yxqj--p-VrBpvTJwJd-63" value="评论时间" style="rounded=1;whiteSpace=wrap;html=1;fontSize=15;" vertex="1" parent="1">
          <mxGeometry x="1170" y="655" width="90" height="40" as="geometry" />
        </mxCell>
        <mxCell id="c2yxqj--p-VrBpvTJwJd-64" value="评论内容" style="rounded=1;whiteSpace=wrap;html=1;fontSize=15;" vertex="1" parent="1">
          <mxGeometry x="1170" y="605" width="90" height="40" as="geometry" />
        </mxCell>
        <mxCell id="c2yxqj--p-VrBpvTJwJd-96" style="edgeStyle=orthogonalEdgeStyle;shape=connector;rounded=1;orthogonalLoop=1;jettySize=auto;html=1;entryX=0;entryY=0.5;entryDx=0;entryDy=0;labelBackgroundColor=default;fontFamily=Helvetica;fontSize=15;fontColor=default;startArrow=none;startFill=0;endArrow=none;endFill=0;strokeColor=default;elbow=vertical;" edge="1" parent="1" source="c2yxqj--p-VrBpvTJwJd-93" target="c2yxqj--p-VrBpvTJwJd-94">
          <mxGeometry relative="1" as="geometry" />
        </mxCell>
        <mxCell id="c2yxqj--p-VrBpvTJwJd-97" style="edgeStyle=orthogonalEdgeStyle;shape=connector;rounded=1;orthogonalLoop=1;jettySize=auto;html=1;entryX=0;entryY=0.5;entryDx=0;entryDy=0;labelBackgroundColor=default;fontFamily=Helvetica;fontSize=15;fontColor=default;startArrow=none;startFill=0;endArrow=none;endFill=0;strokeColor=default;elbow=vertical;" edge="1" parent="1" source="c2yxqj--p-VrBpvTJwJd-93" target="c2yxqj--p-VrBpvTJwJd-95">
          <mxGeometry relative="1" as="geometry" />
        </mxCell>
        <mxCell id="c2yxqj--p-VrBpvTJwJd-93" value="标签" style="rounded=1;whiteSpace=wrap;html=1;fontSize=15;" vertex="1" parent="1">
          <mxGeometry x="990" y="370" width="90" height="40" as="geometry" />
        </mxCell>
        <mxCell id="c2yxqj--p-VrBpvTJwJd-94" value="标签名称" style="rounded=1;whiteSpace=wrap;html=1;fontSize=15;" vertex="1" parent="1">
          <mxGeometry x="1170" y="330" width="90" height="40" as="geometry" />
        </mxCell>
        <mxCell id="c2yxqj--p-VrBpvTJwJd-95" value="创建时间" style="rounded=1;whiteSpace=wrap;html=1;fontSize=15;" vertex="1" parent="1">
          <mxGeometry x="1170" y="410" width="90" height="40" as="geometry" />
        </mxCell>
        <mxCell id="c2yxqj--p-VrBpvTJwJd-118" value="1" style="text;html=1;align=center;verticalAlign=middle;resizable=0;points=[];autosize=1;strokeColor=none;fillColor=none;fontSize=15;fontFamily=Helvetica;fontColor=default;" vertex="1" parent="1">
          <mxGeometry x="574" y="380" width="20" height="20" as="geometry" />
        </mxCell>
        <mxCell id="c2yxqj--p-VrBpvTJwJd-119" value="" style="edgeStyle=orthogonalEdgeStyle;shape=connector;rounded=1;orthogonalLoop=1;jettySize=auto;html=1;entryX=1;entryY=0.5;entryDx=0;entryDy=0;labelBackgroundColor=default;fontFamily=Helvetica;fontSize=15;fontColor=default;startArrow=none;startFill=0;endArrow=none;endFill=0;strokeColor=default;" edge="1" parent="1" source="c2yxqj--p-VrBpvTJwJd-117" target="c2yxqj--p-VrBpvTJwJd-118">
          <mxGeometry relative="1" as="geometry">
            <mxPoint x="730" y="350.0588235294117" as="sourcePoint" />
            <mxPoint x="540" y="390" as="targetPoint" />
            <Array as="points">
              <mxPoint x="631" y="350" />
              <mxPoint x="631" y="390" />
              <mxPoint x="594" y="390" />
            </Array>
          </mxGeometry>
        </mxCell>
        <mxCell id="c2yxqj--p-VrBpvTJwJd-117" value="N" style="text;html=1;align=center;verticalAlign=middle;resizable=0;points=[];autosize=1;strokeColor=none;fillColor=none;fontSize=15;fontFamily=Helvetica;fontColor=default;" vertex="1" parent="1">
          <mxGeometry x="668" y="340" width="30" height="20" as="geometry" />
        </mxCell>
        <mxCell id="c2yxqj--p-VrBpvTJwJd-120" value="" style="edgeStyle=orthogonalEdgeStyle;shape=connector;rounded=1;orthogonalLoop=1;jettySize=auto;html=1;entryX=1;entryY=0.5;entryDx=0;entryDy=0;labelBackgroundColor=default;fontFamily=Helvetica;fontSize=15;fontColor=default;startArrow=none;startFill=0;endArrow=none;endFill=0;strokeColor=default;" edge="1" parent="1" source="c2yxqj--p-VrBpvTJwJd-6" target="c2yxqj--p-VrBpvTJwJd-117">
          <mxGeometry relative="1" as="geometry">
            <mxPoint x="730" y="350.0588235294117" as="sourcePoint" />
            <mxPoint x="590" y="380" as="targetPoint" />
            <Array as="points">
              <mxPoint x="740" y="350" />
            </Array>
          </mxGeometry>
        </mxCell>
        <mxCell id="c2yxqj--p-VrBpvTJwJd-121" value="N" style="text;html=1;align=center;verticalAlign=middle;resizable=0;points=[];autosize=1;strokeColor=none;fillColor=none;fontSize=15;fontFamily=Helvetica;fontColor=default;" vertex="1" parent="1">
          <mxGeometry x="840" y="340" width="30" height="20" as="geometry" />
        </mxCell>
        <mxCell id="c2yxqj--p-VrBpvTJwJd-122" value="" style="edgeStyle=orthogonalEdgeStyle;shape=connector;rounded=1;orthogonalLoop=1;jettySize=auto;html=1;entryX=0;entryY=0.5;entryDx=0;entryDy=0;labelBackgroundColor=default;fontFamily=Helvetica;fontSize=15;fontColor=default;startArrow=none;startFill=0;endArrow=none;endFill=0;strokeColor=default;elbow=vertical;" edge="1" parent="1" source="c2yxqj--p-VrBpvTJwJd-6" target="c2yxqj--p-VrBpvTJwJd-121">
          <mxGeometry relative="1" as="geometry">
            <mxPoint x="820.0000000000005" y="350.0588235294117" as="sourcePoint" />
            <mxPoint x="989.9999999999995" y="390" as="targetPoint" />
            <Array as="points">
              <mxPoint x="810" y="350" />
            </Array>
          </mxGeometry>
        </mxCell>
        <mxCell id="c2yxqj--p-VrBpvTJwJd-123" value="N" style="text;html=1;align=center;verticalAlign=middle;resizable=0;points=[];autosize=1;strokeColor=none;fillColor=none;fontSize=15;fontFamily=Helvetica;fontColor=default;" vertex="1" parent="1">
          <mxGeometry x="934" y="380" width="30" height="20" as="geometry" />
        </mxCell>
        <mxCell id="c2yxqj--p-VrBpvTJwJd-124" value="" style="edgeStyle=orthogonalEdgeStyle;shape=connector;rounded=1;orthogonalLoop=1;jettySize=auto;html=1;entryX=0;entryY=0.5;entryDx=0;entryDy=0;labelBackgroundColor=default;fontFamily=Helvetica;fontSize=15;fontColor=default;startArrow=none;startFill=0;endArrow=none;endFill=0;strokeColor=default;elbow=vertical;" edge="1" parent="1" source="c2yxqj--p-VrBpvTJwJd-121" target="c2yxqj--p-VrBpvTJwJd-123">
          <mxGeometry relative="1" as="geometry">
            <mxPoint x="869.9999999999995" y="350.0588235294117" as="sourcePoint" />
            <mxPoint x="989.9999999999995" y="390" as="targetPoint" />
          </mxGeometry>
        </mxCell>
        <mxCell id="c2yxqj--p-VrBpvTJwJd-135" value="N" style="text;html=1;align=center;verticalAlign=middle;resizable=0;points=[];autosize=1;strokeColor=none;fillColor=none;fontSize=15;fontFamily=Helvetica;fontColor=default;" vertex="1" parent="1">
          <mxGeometry x="670" y="432" width="30" height="20" as="geometry" />
        </mxCell>
        <mxCell id="c2yxqj--p-VrBpvTJwJd-136" value="" style="edgeStyle=orthogonalEdgeStyle;shape=connector;rounded=1;orthogonalLoop=1;jettySize=auto;html=1;entryX=1;entryY=0.5;entryDx=0;entryDy=0;labelBackgroundColor=default;fontFamily=Helvetica;fontSize=15;fontColor=default;startArrow=none;startFill=0;endArrow=none;endFill=0;strokeColor=default;" edge="1" parent="1">
          <mxGeometry relative="1" as="geometry">
            <mxPoint x="729" y="440.0588235294117" as="sourcePoint" />
            <mxPoint x="699" y="442" as="targetPoint" />
            <Array as="points" />
          </mxGeometry>
        </mxCell>
        <mxCell id="c2yxqj--p-VrBpvTJwJd-139" value="1" style="text;html=1;align=center;verticalAlign=middle;resizable=0;points=[];autosize=1;strokeColor=none;fillColor=none;fontSize=15;fontFamily=Helvetica;fontColor=default;" vertex="1" parent="1">
          <mxGeometry x="574" y="590" width="20" height="20" as="geometry" />
        </mxCell>
        <mxCell id="c2yxqj--p-VrBpvTJwJd-141" value="" style="edgeStyle=orthogonalEdgeStyle;shape=connector;rounded=1;orthogonalLoop=1;jettySize=auto;html=1;entryX=1;entryY=0.5;entryDx=0;entryDy=0;labelBackgroundColor=default;fontFamily=Helvetica;fontSize=15;fontColor=default;startArrow=none;startFill=0;endArrow=none;endFill=0;strokeColor=default;" edge="1" parent="1" source="c2yxqj--p-VrBpvTJwJd-135" target="c2yxqj--p-VrBpvTJwJd-139">
          <mxGeometry relative="1" as="geometry">
            <mxPoint x="670" y="440.0588235294117" as="sourcePoint" />
            <mxPoint x="540" y="600" as="targetPoint" />
            <Array as="points">
              <mxPoint x="635" y="440" />
              <mxPoint x="635" y="600" />
            </Array>
          </mxGeometry>
        </mxCell>
        <mxCell id="c2yxqj--p-VrBpvTJwJd-145" value="N" style="text;html=1;align=center;verticalAlign=middle;resizable=0;points=[];autosize=1;strokeColor=none;fillColor=none;fontSize=15;fontFamily=Helvetica;fontColor=default;" vertex="1" parent="1">
          <mxGeometry x="840" y="432" width="30" height="20" as="geometry" />
        </mxCell>
        <mxCell id="c2yxqj--p-VrBpvTJwJd-147" value="" style="edgeStyle=orthogonalEdgeStyle;shape=connector;rounded=1;orthogonalLoop=1;jettySize=auto;html=1;entryX=0;entryY=0.5;entryDx=0;entryDy=0;labelBackgroundColor=default;fontFamily=Helvetica;fontSize=15;fontColor=default;startArrow=none;startFill=0;endArrow=none;endFill=0;strokeColor=default;" edge="1" parent="1" source="c2yxqj--p-VrBpvTJwJd-6" target="c2yxqj--p-VrBpvTJwJd-145">
          <mxGeometry relative="1" as="geometry">
            <mxPoint x="820.0000000000005" y="440.0588235294117" as="sourcePoint" />
            <mxPoint x="989.9999999999995" y="600" as="targetPoint" />
          </mxGeometry>
        </mxCell>
        <mxCell id="c2yxqj--p-VrBpvTJwJd-148" value="1" style="text;html=1;align=center;verticalAlign=middle;resizable=0;points=[];autosize=1;strokeColor=none;fillColor=none;fontSize=15;fontFamily=Helvetica;fontColor=default;" vertex="1" parent="1">
          <mxGeometry x="940" y="590" width="20" height="20" as="geometry" />
        </mxCell>
        <mxCell id="c2yxqj--p-VrBpvTJwJd-149" value="" style="edgeStyle=orthogonalEdgeStyle;shape=connector;rounded=1;orthogonalLoop=1;jettySize=auto;html=1;entryX=0;entryY=0.5;entryDx=0;entryDy=0;labelBackgroundColor=default;fontFamily=Helvetica;fontSize=15;fontColor=default;startArrow=none;startFill=0;endArrow=none;endFill=0;strokeColor=default;" edge="1" parent="1" source="c2yxqj--p-VrBpvTJwJd-145" target="c2yxqj--p-VrBpvTJwJd-148">
          <mxGeometry relative="1" as="geometry">
            <mxPoint x="869.9999999999995" y="442.0588235294117" as="sourcePoint" />
            <mxPoint x="989.9999999999995" y="600" as="targetPoint" />
            <Array as="points">
              <mxPoint x="905" y="440" />
              <mxPoint x="905" y="600" />
            </Array>
          </mxGeometry>
        </mxCell>
      </root>
    </mxGraphModel>
  </diagram>
</mxfile>
